<svg xmlns="http://www.w3.org/2000/svg" version="1.1" xmlns:xlink="http://www.w3.org/1999/xlink" xmlns:svgjs="http://svgjs.dev/svgjs" width="1000" height="338" viewBox="0 0 1000 338"><g transform="matrix(1,0,0,1,-0.6060606060606233,0.5813701117215828)"><svg viewBox="0 0 396 134" data-background-color="#ffffff" preserveAspectRatio="xMidYMid meet" height="338" width="1000" xmlns="http://www.w3.org/2000/svg" xmlns:xlink="http://www.w3.org/1999/xlink"><g id="tight-bounds" transform="matrix(1,0,0,1,0.2400000000000091,-0.23048400878903408)"><svg viewBox="0 0 395.52 134.46095762147132" height="134.46095762147132" width="395.52"><rect width="395.5199890136719" height="134.46096801757812" fill="url(#d2de7ee1-5853-4976-a1ac-e3612256e1e0)" mask="url(&quot;#7c1b89c5-8393-4f5c-8f01-e0c2a7eb4fc7&quot;)" data-fill-palette-color="accent"></rect><g><svg viewBox="0 0 668.0718062925939 227.11765481899343" height="134.46095762147132" width="395.52"><g transform="matrix(1,0,0,1,272.55180629259394,49.150095888360724)"><svg viewBox="0 0 395.52 128.81746304227198" height="128.81746304227198" width="395.52"><g id="textblocktransform"><svg viewBox="0 0 395.52 128.81746304227198" height="128.81746304227198" width="395.52" id="textblock"><g><svg viewBox="0 0 395.52 96.22780687914171" height="96.22780687914171" width="395.52"><g transform="matrix(1,0,0,1,0,0)"><svg width="395.52" viewBox="2.5 -38.04999923706055 158.44000244140625 38.54999923706055" height="96.22780687914171" data-palette-color="#883d1a"><path d="M27.15-21.25L27.15-21.25Q27.15-22.6 26.8-23.45L26.8-23.45Q27.3-24.2 28.38-24.68 29.45-25.15 30.43-25.15 31.4-25.15 32.15-24.85L32.15-24.85Q34.7-23.6 34.7-20.35L34.7-20.35Q34.7-11.7 28.75-5.4L28.75-5.4Q30.2-3.85 31.45-3.85L31.45-3.85Q33.55-3.85 33.55-5.9L33.55-5.9Q33.55-6.45 33.4-7.05L33.4-7.05Q35.75-5.95 35.75-3.78 35.75-1.6 34.35-0.55 32.95 0.5 31 0.5L31 0.5Q28.1 0.5 25.45-2.65L25.45-2.65Q20.9 0.3 15.8 0.3L15.8 0.3Q9.35 0.3 5.93-3.9 2.5-8.1 2.5-14.85L2.5-14.85Q2.5-19.25 3.85-23.43 5.2-27.6 7.58-30.85 9.95-34.1 13.55-36.08 17.15-38.05 21.08-38.05 25-38.05 27.53-36.27 30.05-34.5 30.05-31.35L30.05-31.35Q30.05-28.95 28.38-27.08 26.7-25.2 23.75-25.2L23.75-25.2Q22.2-25.2 21-25.98 19.8-26.75 19.8-28.45L19.8-28.45Q19.8-29.25 20.2-29.85 20.6-30.45 21-30.6L21-30.6 21.45-30.8Q21.45-28.8 23.05-28.8L23.05-28.8Q23.8-28.8 24.35-29.33 24.9-29.85 24.95-30.5 25-31.15 24.9-31.53 24.8-31.9 24.5-32.4L24.5-32.4Q23.8-33.65 21.55-33.65L21.55-33.65Q18.6-33.65 15.95-30.85 13.3-28.05 11.73-23.65 10.15-19.25 10.15-14.65L10.15-14.65Q10.15-10.8 11.4-7.8L11.4-7.8Q12.1-6.2 13.45-5.28 14.8-4.35 16.7-4.35L16.7-4.35Q19.85-4.35 22.3-7.05L22.3-7.05Q19.65-11.1 17.8-11.1L17.8-11.1Q17.55-11.1 16.5-10.75L16.5-10.75 17.25-13.4Q18.25-14.25 19.6-14.25L19.6-14.25Q22.05-14.25 24.8-10.75L24.8-10.75Q27.15-15.55 27.15-21.25ZM60.4-23.55L60.4-23.55Q58.35-7.35 58.35-6.3L58.35-6.3Q58.35-4.3 59.8-4.3L59.8-4.3Q61.1-4.3 62.62-6.08 64.15-7.85 65.05-11.4L65.05-11.4Q66.7-9.6 67.05-8.6L67.05-8.6Q65.9-3.75 63.4-1.75 60.9 0.25 58.25 0.25L58.25 0.25Q53.9 0.25 52.4-3.1L52.4-3.1Q49.8 0.25 45.45 0.25L45.45 0.25Q41.85 0.25 39.9-1.55 37.95-3.35 37.95-6.25L37.95-6.25Q37.95-6.95 38.2-8.7L38.2-8.7Q39.35-18 39.95-23.5L39.95-23.5Q41.5-24.05 42.8-24.05 44.1-24.05 44.75-23.95 45.4-23.85 46-23.2 46.6-22.55 46.6-21.35L46.6-21.35 44.95-8.6Q44.85-8 44.85-7.5L44.85-7.5Q44.85-4.55 47.55-4.55L47.55-4.55Q50.05-4.55 51.7-7L51.7-7Q51.7-7.55 51.8-8.75L51.8-8.75 53.45-22.05Q53.8-22.9 54.95-23.48 56.1-24.05 57.82-24.05 59.55-24.05 60.4-23.55ZM76.55-24.05L76.55-24.05Q81.15-24.05 84.22-21.1 87.3-18.15 87.3-13.9L87.3-13.9Q87.3-7.45 83.52-3.58 79.75 0.3 74.4 0.3 69.05 0.3 65.92-2.75 62.8-5.8 62.8-10.3L62.8-10.3Q62.8-16.6 66.65-20.3L66.65-20.3Q70.55-24.05 76.55-24.05ZM75.57-20Q73.2-20 71.6-17.3 70-14.6 69.85-10.5L69.85-10.5Q69.85-7.6 71.02-5.7 72.2-3.8 74.6-3.8 77-3.8 78.62-6.45 80.25-9.1 80.25-12.5 80.25-15.9 79.1-17.9L79.1-17.9Q77.95-20 75.57-20ZM100.74-34.8L100.74-34.8Q100.74-34.5 99.39-24.05L99.39-24.05 106.74-24.05 106.74-20.2 98.89-20.2 98.74-18.95Q104.59-14.05 104.59-8.25L104.59-8.25Q104.59-3.7 102.27-1.7 99.94 0.3 96.69 0.3 93.44 0.3 91.94-1.43 90.44-3.15 90.44-5.6L90.44-5.6Q90.44-6.15 90.54-6.8L90.54-6.8 92.09-20.1 91.89-20.2 87.84-20.2Q87.79-20.7 87.79-21.83 87.79-22.95 88.24-24.05L88.24-24.05 92.54-24.05 94.14-37.65Q95.19-38.05 96.94-38.05L96.94-38.05Q100.74-38.05 100.74-34.8ZM101.24-8.3L101.24-8.3Q101.24-11.75 98.24-15.1L98.24-15.1Q97.34-7.65 97.34-6.5L97.34-6.5Q97.34-4.25 98.79-4.25L98.79-4.25Q99.84-4.25 100.54-5.23 101.24-6.2 101.24-8.3ZM115.94-11.2Q119.04-11.85 120.57-13.7 122.09-15.55 122.09-17.28 122.09-19 121.17-19.63 120.24-20.25 119.14-20.25L119.14-20.25Q116.79-20.25 115.02-17.63 113.24-15 113.24-11.38 113.24-7.75 114.97-5.98 116.69-4.2 119.24-4.2L119.24-4.2Q122.99-4.2 126.44-6.8 129.89-9.4 132.04-13.6L132.04-13.6Q133.14-12.55 134.04-11L134.04-11Q132.39-7.25 128.19-3.65L128.19-3.65Q126.09-1.9 123.22-0.8 120.34 0.3 117.29 0.3L117.29 0.3Q112.29 0.3 109.39-2.75L109.39-2.75Q106.29-6.05 106.29-11.2 106.29-16.35 110.17-20.2 114.04-24.05 119.44-24.05L119.44-24.05Q123.29-24.05 125.69-22.38 128.09-20.7 128.14-17.85L128.14-17.85Q128.14-14 125.07-11.6 121.99-9.2 116.64-8.25L116.64-8.25 115.94-11.2ZM149.04-36.05Q149.39-36.9 150.61-37.48 151.84-38.05 153.56-38.05 155.29-38.05 156.14-37.55L156.14-37.55Q155.64-33.65 154.54-25.3L154.54-25.3Q152.24-7.85 152.24-6.08 152.24-4.3 153.74-4.3L153.74-4.3Q155.04-4.3 156.44-5.93 157.84-7.55 158.99-11.25L158.99-11.25Q160.39-9.9 160.94-8.3L160.94-8.3Q159.14-2.35 155.29-0.6L155.29-0.6Q153.54 0.25 151.99 0.25L151.99 0.25Q147.54 0.25 146.04-2.95L146.04-2.95Q143.44 0.3 139.39 0.3 135.34 0.3 132.56-2.45 129.79-5.2 129.79-9.7L129.79-9.7Q129.79-16.25 133.64-20.15 137.49-24.05 143.39-24.05L143.39-24.05Q143.54-24.05 143.69-24.05L143.69-24.05Q145.74-24.05 147.54-23.45L147.54-23.45 149.04-36.05ZM144.14-20.15L144.14-20.15Q140.94-20.15 139.06-17.73 137.19-15.3 136.84-10.5L136.84-10.5Q136.79-10.05 136.79-9.65L136.79-9.65Q136.79-7.2 137.96-5.75 139.14-4.3 140.99-4.3L140.99-4.3Q144.14-4.3 145.74-8.75L145.74-8.75 147.04-19.5Q145.39-20.15 144.14-20.15Z" opacity="1" transform="matrix(1,0,0,1,0,0)" fill="#883d1a" class="undefined-text-0" data-fill-palette-color="primary" id="text-0"></path></svg></g></svg></g><g transform="matrix(1,0,0,1,0,118.94488261594196)"><svg viewBox="0 0 232.209792 9.872580426330028" height="9.872580426330028" width="232.209792"><g transform="matrix(1,0,0,1,0,0)"><svg width="232.209792" viewBox="2.200000047683716 -37.099998474121094 1108.9100341796875 47.14999771118164" height="9.872580426330028" data-palette-color="#2a160c"><path d="M20.9 0.5Q15.6 0.5 11.33-1.83 7.05-4.15 4.63-8.25 2.2-12.35 2.2-17.5L2.2-17.5Q2.2-22.65 4.65-26.75 7.1-30.85 11.38-33.18 15.65-35.5 20.95-35.5L20.95-35.5Q25.25-35.5 28.8-34 32.35-32.5 34.8-29.65L34.8-29.65 30.6-25.7Q26.8-29.8 21.25-29.8L21.25-29.8Q17.65-29.8 14.8-28.23 11.95-26.65 10.35-23.85 8.75-21.05 8.75-17.5L8.75-17.5Q8.75-13.95 10.35-11.15 11.95-8.35 14.8-6.78 17.65-5.2 21.25-5.2L21.25-5.2Q26.8-5.2 30.6-9.35L30.6-9.35 34.8-5.35Q32.35-2.5 28.78-1 25.2 0.5 20.9 0.5L20.9 0.5ZM46.4-22.8Q49.1-27 55.9-27L55.9-27 55.9-21.05Q55.1-21.2 54.45-21.2L54.45-21.2Q50.8-21.2 48.75-19.07 46.7-16.95 46.7-12.95L46.7-12.95 46.7 0 40.45 0 40.45-26.7 46.4-26.7 46.4-22.8ZM73.65-4.95Q78-4.95 80.9-7.85L80.9-7.85 84.2-4Q82.45-1.85 79.7-0.75 76.95 0.35 73.5 0.35L73.5 0.35Q69.09 0.35 65.75-1.4 62.4-3.15 60.57-6.28 58.75-9.4 58.75-13.35L58.75-13.35Q58.75-17.25 60.52-20.38 62.3-23.5 65.42-25.25 68.55-27 72.5-27L72.5-27Q76.25-27 79.32-25.38 82.4-23.75 84.2-20.73 86-17.7 86-13.65L86-13.65 65.55-9.65Q66.5-7.35 68.59-6.15 70.7-4.95 73.65-4.95L73.65-4.95ZM72.5-22Q69.05-22 66.92-19.75 64.8-17.5 64.8-13.7L64.8-13.7 64.8-13.65 79.9-16.55Q79.25-19 77.27-20.5 75.3-22 72.5-22L72.5-22ZM111.84-26.7L118.09-26.7 118.09 0 112.14 0 112.14-3.45Q110.59-1.55 108.32-0.6 106.04 0.35 103.29 0.35L103.29 0.35Q99.39 0.35 96.32-1.35 93.24-3.05 91.52-6.15 89.79-9.25 89.79-13.35L89.79-13.35Q89.79-17.45 91.52-20.53 93.24-23.6 96.32-25.3 99.39-27 103.29-27L103.29-27Q105.89-27 108.07-26.1 110.24-25.2 111.84-23.45L111.84-23.45 111.84-26.7ZM103.99-5Q107.44-5 109.69-7.3 111.94-9.6 111.94-13.35L111.94-13.35Q111.94-17.1 109.69-19.4 107.44-21.7 103.99-21.7L103.99-21.7Q100.54-21.7 98.32-19.4 96.09-17.1 96.09-13.35L96.09-13.35Q96.09-9.6 98.32-7.3 100.54-5 103.99-5L103.99-5ZM139.54-5.9L141.29-1.45Q140.19-0.55 138.62-0.1 137.04 0.35 135.29 0.35L135.29 0.35Q130.89 0.35 128.49-1.95 126.09-4.25 126.09-8.65L126.09-8.65 126.09-32.6 132.34-32.6 132.34-26.5 139.49-26.5 139.49-21.5 132.34-21.5 132.34-8.8Q132.34-6.85 133.32-5.83 134.29-4.8 136.04-4.8L136.04-4.8Q138.14-4.8 139.54-5.9L139.54-5.9ZM158.24-4.95Q162.59-4.95 165.49-7.85L165.49-7.85 168.79-4Q167.04-1.85 164.29-0.75 161.54 0.35 158.09 0.35L158.09 0.35Q153.69 0.35 150.34-1.4 146.99-3.15 145.16-6.28 143.34-9.4 143.34-13.35L143.34-13.35Q143.34-17.25 145.11-20.38 146.89-23.5 150.01-25.25 153.14-27 157.09-27L157.09-27Q160.84-27 163.91-25.38 166.99-23.75 168.79-20.73 170.59-17.7 170.59-13.65L170.59-13.65 150.14-9.65Q151.09-7.35 153.19-6.15 155.29-4.95 158.24-4.95L158.24-4.95ZM157.09-22Q153.64-22 151.51-19.75 149.39-17.5 149.39-13.7L149.39-13.7 149.39-13.65 164.49-16.55Q163.84-19 161.86-20.5 159.89-22 157.09-22L157.09-22ZM226.18-17.5Q226.18-12.9 224.21-9.1 222.23-5.3 218.68-2.85 215.13-0.4 210.58 0.25L210.58 0.25 210.58 6.75 204.08 6.75 204.08 0.25Q199.53-0.4 195.98-2.85 192.43-5.3 190.46-9.1 188.48-12.9 188.48-17.5L188.48-17.5Q188.48-22.6 190.93-26.73 193.38-30.85 197.68-33.18 201.98-35.5 207.33-35.5L207.33-35.5Q212.68-35.5 216.98-33.18 221.28-30.85 223.73-26.75 226.18-22.65 226.18-17.5L226.18-17.5ZM210.33-5.5Q214.53-6.45 217.08-9.7 219.63-12.95 219.63-17.5L219.63-17.5Q219.63-21 218.03-23.83 216.43-26.65 213.63-28.23 210.83-29.8 207.33-29.8L207.33-29.8Q203.83-29.8 201.03-28.23 198.23-26.65 196.63-23.83 195.03-21 195.03-17.5L195.03-17.5Q195.03-12.95 197.58-9.73 200.13-6.5 204.28-5.55L204.28-5.55 204.28-13.25 210.33-13.25 210.33-5.5ZM252.08-26.7L258.33-26.7 258.33 0 252.38 0 252.38-3.4Q250.88-1.6 248.63-0.63 246.38 0.35 243.78 0.35L243.78 0.35Q238.43 0.35 235.36-2.63 232.28-5.6 232.28-11.45L232.28-11.45 232.28-26.7 238.53-26.7 238.53-12.3Q238.53-8.7 240.16-6.93 241.78-5.15 244.78-5.15L244.78-5.15Q248.13-5.15 250.11-7.23 252.08-9.3 252.08-13.2L252.08-13.2 252.08-26.7ZM278.53 0.35Q274.48 0.35 271.23-1.4 267.98-3.15 266.15-6.28 264.33-9.4 264.33-13.35L264.33-13.35Q264.33-17.3 266.15-20.4 267.98-23.5 271.23-25.25 274.48-27 278.53-27L278.53-27Q282.63-27 285.88-25.25 289.13-23.5 290.95-20.4 292.78-17.3 292.78-13.35L292.78-13.35Q292.78-9.4 290.95-6.28 289.13-3.15 285.88-1.4 282.63 0.35 278.53 0.35L278.53 0.35ZM278.53-5Q281.98-5 284.23-7.3 286.48-9.6 286.48-13.35L286.48-13.35Q286.48-17.1 284.23-19.4 281.98-21.7 278.53-21.7L278.53-21.7Q275.08-21.7 272.85-19.4 270.63-17.1 270.63-13.35L270.63-13.35Q270.63-9.6 272.85-7.3 275.08-5 278.53-5L278.53-5ZM312.03-5.9L313.78-1.45Q312.68-0.55 311.1-0.1 309.53 0.35 307.78 0.35L307.78 0.35Q303.38 0.35 300.98-1.95 298.58-4.25 298.58-8.65L298.58-8.65 298.58-32.6 304.83-32.6 304.83-26.5 311.98-26.5 311.98-21.5 304.83-21.5 304.83-8.8Q304.83-6.85 305.8-5.83 306.78-4.8 308.53-4.8L308.53-4.8Q310.63-4.8 312.03-5.9L312.03-5.9ZM330.72-4.95Q335.07-4.95 337.97-7.85L337.97-7.85 341.27-4Q339.52-1.85 336.77-0.75 334.02 0.35 330.57 0.35L330.57 0.35Q326.17 0.35 322.82-1.4 319.47-3.15 317.65-6.28 315.82-9.4 315.82-13.35L315.82-13.35Q315.82-17.25 317.6-20.38 319.37-23.5 322.5-25.25 325.62-27 329.57-27L329.57-27Q333.32-27 336.4-25.38 339.47-23.75 341.27-20.73 343.07-17.7 343.07-13.65L343.07-13.65 322.62-9.65Q323.57-7.35 325.67-6.15 327.77-4.95 330.72-4.95L330.72-4.95ZM329.57-22Q326.12-22 324-19.75 321.87-17.5 321.87-13.7L321.87-13.7 321.87-13.65 336.97-16.55Q336.32-19 334.35-20.5 332.37-22 329.57-22L329.57-22ZM357.32 0.35Q354.07 0.35 350.97-0.5 347.87-1.35 346.02-2.65L346.02-2.65 348.42-7.4Q350.22-6.2 352.75-5.48 355.27-4.75 357.72-4.75L357.72-4.75Q363.32-4.75 363.32-7.7L363.32-7.7Q363.32-9.1 361.9-9.65 360.47-10.2 357.32-10.7L357.32-10.7Q354.02-11.2 351.95-11.85 349.87-12.5 348.35-14.13 346.82-15.75 346.82-18.65L346.82-18.65Q346.82-22.45 350-24.73 353.17-27 358.57-27L358.57-27Q361.32-27 364.07-26.38 366.82-25.75 368.57-24.7L368.57-24.7 366.17-19.95Q362.77-21.95 358.52-21.95L358.52-21.95Q355.77-21.95 354.35-21.13 352.92-20.3 352.92-18.95L352.92-18.95Q352.92-17.45 354.45-16.82 355.97-16.2 359.17-15.65L359.17-15.65Q362.37-15.15 364.42-14.5 366.47-13.85 367.95-12.3 369.42-10.75 369.42-7.9L369.42-7.9Q369.42-4.15 366.17-1.9 362.92 0.35 357.32 0.35L357.32 0.35ZM404.47-35.5Q409.17-35.5 412.67-33.65 416.17-31.8 418.09-28.18 420.02-24.55 420.02-19.4L420.02-19.4 420.02 0 413.52 0 413.52-9 395.32-9 395.32 0 388.92 0 388.92-19.4Q388.92-24.55 390.84-28.18 392.77-31.8 396.27-33.65 399.77-35.5 404.47-35.5L404.47-35.5ZM395.32-14.45L413.52-14.45 413.52-20Q413.52-24.85 411.12-27.33 408.72-29.8 404.42-29.8L404.42-29.8Q400.12-29.8 397.72-27.33 395.32-24.85 395.32-20L395.32-20 395.32-14.45ZM443.66-27Q448.71-27 451.76-24.05 454.81-21.1 454.81-15.3L454.81-15.3 454.81 0 448.56 0 448.56-14.5Q448.56-18 446.91-19.78 445.26-21.55 442.21-21.55L442.21-21.55Q438.76-21.55 436.76-19.48 434.76-17.4 434.76-13.5L434.76-13.5 434.76 0 428.51 0 428.51-26.7 434.46-26.7 434.46-23.25Q436.01-25.1 438.36-26.05 440.71-27 443.66-27L443.66-27ZM482.91-37.1L489.16-37.1 489.16 0 483.16 0 483.16-3.45Q481.61-1.55 479.34-0.6 477.06 0.35 474.31 0.35L474.31 0.35Q470.46 0.35 467.39-1.35 464.31-3.05 462.56-6.18 460.81-9.3 460.81-13.35L460.81-13.35Q460.81-17.4 462.56-20.5 464.31-23.6 467.39-25.3 470.46-27 474.31-27L474.31-27Q476.96-27 479.16-26.1 481.36-25.2 482.91-23.4L482.91-23.4 482.91-37.1ZM475.06-5Q477.31-5 479.11-6.03 480.91-7.05 481.96-8.95 483.01-10.85 483.01-13.35L483.01-13.35Q483.01-15.85 481.96-17.75 480.91-19.65 479.11-20.68 477.31-21.7 475.06-21.7L475.06-21.7Q472.81-21.7 471.01-20.68 469.21-19.65 468.16-17.75 467.11-15.85 467.11-13.35L467.11-13.35Q467.11-10.85 468.16-8.95 469.21-7.05 471.01-6.03 472.81-5 475.06-5L475.06-5ZM522.61 0.5Q518.56 0.5 514.78-0.65 511.01-1.8 508.81-3.7L508.81-3.7 511.06-8.75Q513.21-7.05 516.33-5.98 519.46-4.9 522.61-4.9L522.61-4.9Q526.51-4.9 528.43-6.15 530.36-7.4 530.36-9.45L530.36-9.45Q530.36-10.95 529.28-11.93 528.21-12.9 526.56-13.45 524.91-14 522.06-14.7L522.06-14.7Q518.06-15.65 515.58-16.6 513.11-17.55 511.33-19.58 509.56-21.6 509.56-25.05L509.56-25.05Q509.56-27.95 511.13-30.33 512.71-32.7 515.88-34.1 519.06-35.5 523.66-35.5L523.66-35.5Q526.86-35.5 529.96-34.7 533.06-33.9 535.31-32.4L535.31-32.4 533.26-27.35Q530.96-28.7 528.46-29.4 525.96-30.1 523.61-30.1L523.61-30.1Q519.76-30.1 517.88-28.8 516.01-27.5 516.01-25.35L516.01-25.35Q516.01-23.85 517.08-22.9 518.16-21.95 519.81-21.4 521.46-20.85 524.31-20.15L524.31-20.15Q528.21-19.25 530.71-18.28 533.21-17.3 534.98-15.3 536.76-13.3 536.76-9.9L536.76-9.9Q536.76-7 535.18-4.65 533.61-2.3 530.41-0.9 527.21 0.5 522.61 0.5L522.61 0.5ZM557.75-27Q562.8-27 565.85-24.05 568.9-21.1 568.9-15.3L568.9-15.3 568.9 0 562.65 0 562.65-14.5Q562.65-18 561-19.78 559.35-21.55 556.3-21.55L556.3-21.55Q552.85-21.55 550.85-19.48 548.85-17.4 548.85-13.5L548.85-13.5 548.85 0 542.6 0 542.6-37.1 548.85-37.1 548.85-23.6Q550.4-25.25 552.68-26.13 554.95-27 557.75-27L557.75-27ZM596.95-26.7L603.2-26.7 603.2 0 597.25 0 597.25-3.45Q595.7-1.55 593.42-0.6 591.15 0.35 588.4 0.35L588.4 0.35Q584.5 0.35 581.42-1.35 578.35-3.05 576.63-6.15 574.9-9.25 574.9-13.35L574.9-13.35Q574.9-17.45 576.63-20.53 578.35-23.6 581.42-25.3 584.5-27 588.4-27L588.4-27Q591-27 593.17-26.1 595.35-25.2 596.95-23.45L596.95-23.45 596.95-26.7ZM589.1-5Q592.55-5 594.8-7.3 597.05-9.6 597.05-13.35L597.05-13.35Q597.05-17.1 594.8-19.4 592.55-21.7 589.1-21.7L589.1-21.7Q585.65-21.7 583.42-19.4 581.2-17.1 581.2-13.35L581.2-13.35Q581.2-9.6 583.42-7.3 585.65-5 589.1-5L589.1-5ZM617.35-22.8Q620.05-27 626.85-27L626.85-27 626.85-21.05Q626.05-21.2 625.4-21.2L625.4-21.2Q621.75-21.2 619.7-19.07 617.65-16.95 617.65-12.95L617.65-12.95 617.65 0 611.4 0 611.4-26.7 617.35-26.7 617.35-22.8ZM644.59-4.95Q648.94-4.95 651.84-7.85L651.84-7.85 655.14-4Q653.39-1.85 650.64-0.75 647.89 0.35 644.44 0.35L644.44 0.35Q640.04 0.35 636.69-1.4 633.34-3.15 631.52-6.28 629.69-9.4 629.69-13.35L629.69-13.35Q629.69-17.25 631.47-20.38 633.24-23.5 636.37-25.25 639.49-27 643.44-27L643.44-27Q647.19-27 650.27-25.38 653.34-23.75 655.14-20.73 656.94-17.7 656.94-13.65L656.94-13.65 636.49-9.65Q637.44-7.35 639.54-6.15 641.64-4.95 644.59-4.95L644.59-4.95ZM643.44-22Q639.99-22 637.87-19.75 635.74-17.5 635.74-13.7L635.74-13.7 635.74-13.65 650.84-16.55Q650.19-19 648.22-20.5 646.24-22 643.44-22L643.44-22ZM703.89-31.3L701.64-26.3Q696.69-29.1 691.34-29.7L691.34-29.7 691.34 0 684.84 0 684.84-29.7Q679.44-29.1 674.49-26.3L674.49-26.3 672.24-31.3Q675.74-33.4 679.76-34.45 683.79-35.5 688.04-35.5L688.04-35.5Q692.29-35.5 696.34-34.45 700.39-33.4 703.89-31.3L703.89-31.3ZM722.74-27Q727.79-27 730.84-24.05 733.89-21.1 733.89-15.3L733.89-15.3 733.89 0 727.64 0 727.64-14.5Q727.64-18 725.99-19.78 724.34-21.55 721.29-21.55L721.29-21.55Q717.84-21.55 715.84-19.48 713.84-17.4 713.84-13.5L713.84-13.5 713.84 0 707.59 0 707.59-37.1 713.84-37.1 713.84-23.6Q715.39-25.25 717.66-26.13 719.94-27 722.74-27L722.74-27ZM754.78-4.95Q759.13-4.95 762.03-7.85L762.03-7.85 765.33-4Q763.58-1.85 760.83-0.75 758.08 0.35 754.63 0.35L754.63 0.35Q750.23 0.35 746.88-1.4 743.53-3.15 741.71-6.28 739.88-9.4 739.88-13.35L739.88-13.35Q739.88-17.25 741.66-20.38 743.43-23.5 746.56-25.25 749.68-27 753.63-27L753.63-27Q757.38-27 760.46-25.38 763.53-23.75 765.33-20.73 767.13-17.7 767.13-13.65L767.13-13.65 746.68-9.65Q747.63-7.35 749.73-6.15 751.83-4.95 754.78-4.95L754.78-4.95ZM753.63-22Q750.18-22 748.06-19.75 745.93-17.5 745.93-13.7L745.93-13.7 745.93-13.65 761.03-16.55Q760.38-19 758.41-20.5 756.43-22 753.63-22L753.63-22ZM785.83-4.95Q790.18-4.95 793.08-7.85L793.08-7.85 796.38-4Q794.63-1.85 791.88-0.75 789.13 0.35 785.68 0.35L785.68 0.35Q781.28 0.35 777.93-1.4 774.58-3.15 772.76-6.28 770.93-9.4 770.93-13.35L770.93-13.35Q770.93-17.25 772.71-20.38 774.48-23.5 777.61-25.25 780.73-27 784.68-27L784.68-27Q788.43-27 791.51-25.38 794.58-23.75 796.38-20.73 798.18-17.7 798.18-13.65L798.18-13.65 777.73-9.65Q778.68-7.35 780.78-6.15 782.88-4.95 785.83-4.95L785.83-4.95ZM784.68-22Q781.23-22 779.11-19.75 776.98-17.5 776.98-13.7L776.98-13.7 776.98-13.65 792.08-16.55Q791.43-19 789.46-20.5 787.48-22 784.68-22L784.68-22ZM842.98 0L830.63-14.65 825.08-8.95 825.08 0 818.58 0 818.58-35 825.08-35 825.08-17.05 842.38-35 849.68-35 834.98-19.35 850.58 0 842.98 0ZM869.07-27Q874.12-27 877.17-24.05 880.22-21.1 880.22-15.3L880.22-15.3 880.22 0 873.97 0 873.97-14.5Q873.97-18 872.32-19.78 870.67-21.55 867.62-21.55L867.62-21.55Q864.17-21.55 862.17-19.48 860.17-17.4 860.17-13.5L860.17-13.5 860.17 0 853.92 0 853.92-26.7 859.87-26.7 859.87-23.25Q861.42-25.1 863.77-26.05 866.12-27 869.07-27L869.07-27ZM900.42 0.35Q896.37 0.35 893.12-1.4 889.87-3.15 888.05-6.28 886.22-9.4 886.22-13.35L886.22-13.35Q886.22-17.3 888.05-20.4 889.87-23.5 893.12-25.25 896.37-27 900.42-27L900.42-27Q904.52-27 907.77-25.25 911.02-23.5 912.85-20.4 914.67-17.3 914.67-13.35L914.67-13.35Q914.67-9.4 912.85-6.28 911.02-3.15 907.77-1.4 904.52 0.35 900.42 0.35L900.42 0.35ZM900.42-5Q903.87-5 906.12-7.3 908.37-9.6 908.37-13.35L908.37-13.35Q908.37-17.1 906.12-19.4 903.87-21.7 900.42-21.7L900.42-21.7Q896.97-21.7 894.75-19.4 892.52-17.1 892.52-13.35L892.52-13.35Q892.52-9.6 894.75-7.3 896.97-5 900.42-5L900.42-5ZM955.47-26.7L961.72-26.7 961.72-11.95Q961.72-6.1 958.67-2.88 955.62 0.35 949.92 0.35L949.92 0.35Q943.77 0.35 941.07-3.8L941.07-3.8Q939.67-1.7 937.49-0.68 935.32 0.35 932.22 0.35L932.22 0.35Q926.52 0.35 923.49-2.88 920.47-6.1 920.47-11.95L920.47-11.95 920.47-26.7 926.72-26.7 926.72-12.5Q926.72-8.7 928.04-6.9 929.37-5.1 932.27-5.1L932.27-5.1Q935.17-5.1 936.57-6.93 937.97-8.75 937.97-12.5L937.97-12.5 937.97-26.7 944.22-26.7 944.22-12.5Q944.22-8.75 945.62-6.93 947.02-5.1 949.92-5.1L949.92-5.1Q952.82-5.1 954.14-6.9 955.47-8.7 955.47-12.5L955.47-12.5 955.47-26.7ZM978.47 0.35Q974.32 0.35 971.99-1.93 969.67-4.2 969.67-8.35L969.67-8.35 969.67-37.1 975.92-37.1 975.92-8.8Q975.92-4.8 979.67-4.8L979.67-4.8Q980.92-4.8 981.92-5.3L981.92-5.3 982.22-0.3Q980.47 0.35 978.47 0.35L978.47 0.35ZM998.66-4.95Q1003.01-4.95 1005.91-7.85L1005.91-7.85 1009.21-4Q1007.46-1.85 1004.71-0.75 1001.96 0.35 998.51 0.35L998.51 0.35Q994.11 0.35 990.76-1.4 987.41-3.15 985.59-6.28 983.76-9.4 983.76-13.35L983.76-13.35Q983.76-17.25 985.54-20.38 987.31-23.5 990.44-25.25 993.56-27 997.51-27L997.51-27Q1001.26-27 1004.34-25.38 1007.41-23.75 1009.21-20.73 1011.01-17.7 1011.01-13.65L1011.01-13.65 990.56-9.65Q991.51-7.35 993.61-6.15 995.71-4.95 998.66-4.95L998.66-4.95ZM997.51-22Q994.06-22 991.94-19.75 989.81-17.5 989.81-13.7L989.81-13.7 989.81-13.65 1004.91-16.55Q1004.26-19 1002.29-20.5 1000.31-22 997.51-22L997.51-22ZM1036.91-37.1L1043.16-37.1 1043.16 0 1037.16 0 1037.16-3.45Q1035.61-1.55 1033.34-0.6 1031.06 0.35 1028.31 0.35L1028.31 0.35Q1024.46 0.35 1021.39-1.35 1018.31-3.05 1016.56-6.18 1014.81-9.3 1014.81-13.35L1014.81-13.35Q1014.81-17.4 1016.56-20.5 1018.31-23.6 1021.39-25.3 1024.46-27 1028.31-27L1028.31-27Q1030.96-27 1033.16-26.1 1035.36-25.2 1036.91-23.4L1036.91-23.4 1036.91-37.1ZM1029.06-5Q1031.31-5 1033.11-6.03 1034.91-7.05 1035.96-8.95 1037.01-10.85 1037.01-13.35L1037.01-13.35Q1037.01-15.85 1035.96-17.75 1034.91-19.65 1033.11-20.68 1031.31-21.7 1029.06-21.7L1029.06-21.7Q1026.81-21.7 1025.01-20.68 1023.21-19.65 1022.16-17.75 1021.11-15.85 1021.11-13.35L1021.11-13.35Q1021.11-10.85 1022.16-8.95 1023.21-7.05 1025.01-6.03 1026.81-5 1029.06-5L1029.06-5ZM1071.91-26.7L1077.86-26.7 1077.86-4.05Q1077.86 10.05 1063.46 10.05L1063.46 10.05Q1059.61 10.05 1056.16 9.08 1052.71 8.1 1050.46 6.25L1050.46 6.25 1053.26 1.55Q1055.01 3 1057.68 3.88 1060.36 4.75 1063.11 4.75L1063.11 4.75Q1067.51 4.75 1069.56 2.75 1071.61 0.75 1071.61-3.35L1071.61-3.35 1071.61-4.75Q1070.01-3 1067.71-2.1 1065.41-1.2 1062.66-1.2L1062.66-1.2Q1058.86-1.2 1055.78-2.83 1052.71-4.45 1050.93-7.4 1049.16-10.35 1049.16-14.15L1049.16-14.15Q1049.16-17.95 1050.93-20.88 1052.71-23.8 1055.78-25.4 1058.86-27 1062.66-27L1062.66-27Q1065.56-27 1067.93-26.05 1070.31-25.1 1071.91-23.15L1071.91-23.15 1071.91-26.7ZM1063.61-6.5Q1067.16-6.5 1069.43-8.63 1071.71-10.75 1071.71-14.15L1071.71-14.15Q1071.71-17.5 1069.43-19.6 1067.16-21.7 1063.61-21.7L1063.61-21.7Q1060.01-21.7 1057.73-19.6 1055.46-17.5 1055.46-14.15L1055.46-14.15Q1055.46-10.75 1057.73-8.63 1060.01-6.5 1063.61-6.5L1063.61-6.5ZM1098.76-4.95Q1103.11-4.95 1106.01-7.85L1106.01-7.85 1109.31-4Q1107.56-1.85 1104.81-0.75 1102.06 0.35 1098.61 0.35L1098.61 0.35Q1094.21 0.35 1090.86-1.4 1087.51-3.15 1085.68-6.28 1083.86-9.4 1083.86-13.35L1083.86-13.35Q1083.86-17.25 1085.63-20.38 1087.41-23.5 1090.53-25.25 1093.66-27 1097.61-27L1097.61-27Q1101.36-27 1104.43-25.38 1107.51-23.75 1109.31-20.73 1111.11-17.7 1111.11-13.65L1111.11-13.65 1090.66-9.65Q1091.61-7.35 1093.71-6.15 1095.81-4.95 1098.76-4.95L1098.76-4.95ZM1097.61-22Q1094.16-22 1092.03-19.75 1089.91-17.5 1089.91-13.7L1089.91-13.7 1089.91-13.65 1105.01-16.55Q1104.36-19 1102.38-20.5 1100.41-22 1097.61-22L1097.61-22Z" opacity="1" transform="matrix(1,0,0,1,0,0)" fill="#2a160c" class="undefined-text-1" data-fill-palette-color="secondary" id="text-1"></path></svg></g></svg></g></svg></g></svg></g><g><svg viewBox="0 0 227.11765481899343 227.11765481899343" height="227.11765481899343" width="227.11765481899343"><g><svg></svg></g><g id="icon-0"><svg viewBox="0 0 227.11765481899343 227.11765481899343" height="227.11765481899343" width="227.11765481899343"><g></g><g transform="matrix(1,0,0,1,58.50832772456836,48.03878224562931)"><svg viewBox="0 0 110.10099936985671 131.04009032773482" height="131.04009032773482" width="110.10099936985671"><g><svg xmlns="http://www.w3.org/2000/svg" xmlns:xlink="http://www.w3.org/1999/xlink" version="1.1" x="0" y="0" viewBox="4.170036315917969 0.2069997787475586 41.66341781616211 49.586997985839844" enable-background="new 0 0 50 50" xml:space="preserve" height="131.04009032773482" width="110.10099936985671" class="icon-s-0" data-fill-palette-color="accent" id="s-0"></svg></g></svg></g></svg></g></svg></g></svg></g><defs></defs><mask id="7c1b89c5-8393-4f5c-8f01-e0c2a7eb4fc7"><g id="SvgjsG1033"><svg viewBox="0 0 395.52 134.46095762147132" height="134.46095762147132" width="395.52"><g><svg viewBox="0 0 668.0718062925939 227.11765481899343" height="134.46095762147132" width="395.52"><g transform="matrix(1,0,0,1,272.55180629259394,49.150095888360724)"><svg viewBox="0 0 395.52 128.81746304227198" height="128.81746304227198" width="395.52"><g id="SvgjsG1032"><svg viewBox="0 0 395.52 128.81746304227198" height="128.81746304227198" width="395.52" id="SvgjsSvg1031"><g><svg viewBox="0 0 395.52 96.22780687914171" height="96.22780687914171" width="395.52"><g transform="matrix(1,0,0,1,0,0)"><svg width="395.52" viewBox="2.5 -38.04999923706055 158.44000244140625 38.54999923706055" height="96.22780687914171" data-palette-color="#883d1a"></svg></g></svg></g><g transform="matrix(1,0,0,1,0,118.94488261594196)"><svg viewBox="0 0 232.209792 9.872580426330028" height="9.872580426330028" width="232.209792"><g transform="matrix(1,0,0,1,0,0)"><svg width="232.209792" viewBox="2.200000047683716 -37.099998474121094 1108.9100341796875 47.14999771118164" height="9.872580426330028" data-palette-color="#2a160c"></svg></g></svg></g></svg></g></svg></g><g><svg viewBox="0 0 227.11765481899343 227.11765481899343" height="227.11765481899343" width="227.11765481899343"><g><svg></svg></g><g id="SvgjsG1028"><svg viewBox="0 0 227.11765481899343 227.11765481899343" height="227.11765481899343" width="227.11765481899343"><g><path d="M0 113.559c0-62.717 50.842-113.559 113.559-113.559 62.717 0 113.559 50.842 113.559 113.559 0 62.717-50.842 113.559-113.559 113.559-62.717 0-113.559-50.842-113.559-113.559zM113.559 218.44c57.924 0 104.881-46.957 104.881-104.881 0-57.924-46.957-104.881-104.881-104.881-57.924 0-104.881 46.957-104.881 104.881 0 57.924 46.957 104.881 104.881 104.881z" fill="white" stroke="transparent"></path></g><g transform="matrix(1,0,0,1,58.50832772456836,48.03878224562931)"><svg viewBox="0 0 110.10099936985671 131.04009032773482" height="131.04009032773482" width="110.10099936985671"><g><svg xmlns="http://www.w3.org/2000/svg" xmlns:xlink="http://www.w3.org/1999/xlink" version="1.1" x="0" y="0" viewBox="4.170036315917969 0.2069997787475586 41.66341781616211 49.586997985839844" enable-background="new 0 0 50 50" xml:space="preserve" height="131.04009032773482" width="110.10099936985671" class="icon-s-0" data-fill-palette-color="accent" id="SvgjsSvg1027"><g fill="white"><path fill="white" d="M20.834 25.431c1.376-0.961 2.777-1.893 4.174-2.822 2.001-1.33 4.064-2.699 6.092-4.203 0.072-0.887 0.273-4.822-1.623-5.205 0 0-3.99 2.846-7.587 5.36C21.89 18.561 22.469 23.187 20.834 25.431z"></path><path fill="white" d="M37.634 13.212c0.022-0.023 0.046-0.049 0.069-0.075 1.387-0.807 4.82-2.721 7.252-3.375 0 0 1.43-5.069 0.641-7.951-0.439-1.604-0.439-1.604-0.439-1.604s-4.123 5.389-6.771 7.233c0 0-0.191 1.968-0.163 2.933-0.103-0.676-0.28-1.879-0.388-2.594 0 0-4.807 4.103-7.607 4.918 0 0 2.016 1.575 0.911 5.683 3.6-2.667 7.077-5.771 9.876-9.838-1.695 2.619-3.674 4.847-5.791 6.813-1.76 1.577-3.617 2.998-5.527 4.379 0.078-0.03 0.177-0.068 0.273-0.104-0.041 0.03-0.084 0.06-0.127 0.09-0.082 0.026-0.148 0.048-0.23 0.074-1.058 0.765-2.127 1.521-3.205 2.282-1.127 0.799-3.481 2.189-6.202 4.207-3.913 2.735-7.632 5.748-10.573 9.757 3.025-4.426 6.984-7.661 11.164-10.582 0.092-0.404 0.756-3.474 0.057-5.921-0.152-0.541-7.275 5.335-8.357 7.508 0 0-4.373 6.063-5.65 12.207-0.283-0.568-0.889-0.81-2.105-0.176 0 0 1.844-0.64 1.908 1.042 0.003 0.032 0 0.063 0 0.095-0.07 0.414-0.127 0.825-0.162 1.233-0.006 0.009-0.012 0.021-0.016 0.032-0.141-0.232-0.387-0.393-0.807-0.391-1.516 0.019-1.676 1.623-1.361 1.748 0 0 0.135-1.152 0.904-1.211 0.773-0.063 0.766 0.833 0.766 0.833l-0.002 0.259C5.615 43.612 5.283 44.535 5 45.517c-0.32 1.111-0.601 2.584-0.601 2.584l0.88 1.693c0.228-1.227 0.775-4.503 0.775-4.503 0.867-3.456 2.445-6.489 4.349-9.132C9.227 37.903 8.2 39.805 7.424 41.88c0.251-0.26 0.594-0.592 0.991-0.926 1.888-1.995 8.782-6.835 10.03-7.367 0 0 3.463-3.103 8.754-5.748 0 0-2.494-0.549-8.877 0.842 3.064-0.695 8.969-1.961 11.15-1.914 0 0 1.617-0.973 7.365-4.599 3.506-2.208 5.292-4.732 5.292-4.732s-2.378-0.882-11.573 2.054c0.072-0.055 0.146-0.107 0.219-0.164 2.828-1.042 8.779-3.068 12.127-2.994 0 0 1.809-2.078 2.471-5.408C45.373 10.923 43.151 10.271 37.634 13.212zM45.151 0.236l0.005 0.006c-0.055 0.166-0.119 0.321-0.18 0.485C45.037 0.563 45.096 0.403 45.151 0.236zM42.146 6.784c0.697-1.17 1.341-2.417 1.92-3.749-1.057 2.517-2.283 4.702-3.655 6.613C41.018 8.749 41.602 7.804 42.146 6.784z"></path></g></svg></g></svg></g></svg></g></svg></g></svg></g><defs></defs></svg></g></mask><linearGradient x1="0.054" x2="0.941" y1="0.5" y2="0.5" id="d2de7ee1-5853-4976-a1ac-e3612256e1e0"><stop stop-color="#864d25" offset="0"></stop><stop stop-color="#f1c4b3" offset="0.498"></stop><stop stop-color="#864d25" offset="1"></stop></linearGradient></svg><rect width="395.52" height="134.46095762147132" fill="none" stroke="none" visibility="hidden"></rect></g></svg></g></svg>